<?xml version="1.0" encoding="UTF-8" standalone="no"?>
<!DOCTYPE svg PUBLIC "-//W3C//DTD SVG 1.1//EN"
 "http://www.w3.org/Graphics/SVG/1.1/DTD/svg11.dtd">
<!-- Generated by graphviz version 2.43.0 (0)
 -->
<!-- Title: LOCKnet.App.ViewModels.ViewModelBase Pages: 1 -->
<!--zoomable 278 -->

<svg id="main" version="1.1" xmlns="http://www.w3.org/2000/svg" xmlns:xlink="http://www.w3.org/1999/xlink" xml:space="preserve" onload="init(evt)">
<style type="text/css"><![CDATA[
.node, .edge {opacity: 0.7;}
.node.selected, .edge.selected {opacity: 1;}
.edge:hover path { stroke: red; }
.edge:hover polygon { stroke: red; fill: red; }
]]></style>

<defs>
  <circle id="rim" cx="0" cy="0" r="7"/>
  <circle id="rim2" cx="0" cy="0" r="3.5"/>
  <g id="zoomPlus">
    <use xlink:href="#rim" fill="#404040"><set attributeName="fill" to="#808080" begin="zoomplus.mouseover" end="zoomplus.mouseout"/></use>
    <path d="M-4,0h8M0,-4v8" fill="none" stroke="white" stroke-width="1.5" pointer-events="none"/>
  </g>
  <g id="zoomMin">
    <use xlink:href="#rim" fill="#404040"><set attributeName="fill" to="#808080" begin="zoomminus.mouseover" end="zoomminus.mouseout"/></use>
    <path d="M-4,0h8" fill="none" stroke="white" stroke-width="1.5" pointer-events="none"/>
  </g>
  <g id="arrowUp" transform="translate(30 24)">
    <use xlink:href="#rim"/>
    <path pointer-events="none" fill="none" stroke="white" stroke-width="1.5" d="M0,-3.0v7 M-2.5,-0.5L0,-3.0L2.5,-0.5"/>
  </g>
  <g id="arrowRight" transform="rotate(90) translate(36 -43)">
    <use xlink:href="#rim"/>
    <path pointer-events="none" fill="none" stroke="white" stroke-width="1.5" d="M0,-3.0v7 M-2.5,-0.5L0,-3.0L2.5,-0.5"/>
  </g>
  <g id="arrowDown" transform="rotate(180) translate(-30 -48)">
    <use xlink:href="#rim"/>
    <path pointer-events="none" fill="none" stroke="white" stroke-width="1.5" d="M0,-3.0v7 M-2.5,-0.5L0,-3.0L2.5,-0.5"/>
  </g>
  <g id="arrowLeft" transform="rotate(270) translate(-36 17)">
    <use xlink:href="#rim"/>
    <path pointer-events="none" fill="none" stroke="white" stroke-width="1.5" d="M0,-3.0v7 M-2.5,-0.5L0,-3.0L2.5,-0.5"/>
  </g>
  <g id="resetDef">
    <use xlink:href="#rim2" fill="#404040"><set attributeName="fill" to="#808080" begin="reset.mouseover" end="reset.mouseout"/></use>
  </g>
</defs>
<script type="application/ecmascript">
var viewWidth = 550;
var viewHeight = 278;
var sectionId = 'dynsection-0';
</script>
<script type="application/ecmascript" xlink:href="svg.min.js"/>
<svg id="graph" class="graph">
<g id="viewport">
<title>LOCKnet.App.ViewModels.ViewModelBase</title>
<!-- Node1 -->
<g id="Node000001" class="node">
<title>Node1</title>
<g id="a_Node000001"><a xlink:title=" ">
<polygon fill="#999999" stroke="#666666" points="310,-150 140,-150 140,-120 310,-120 310,-150"/>
<text text-anchor="start" x="148" y="-138" font-family="Helvetica,sans-Serif" font-size="10.00">LOCKnet.App.ViewModels.View</text>
<text text-anchor="middle" x="225" y="-127" font-family="Helvetica,sans-Serif" font-size="10.00">ModelBase</text>
</a>
</g>
</g>
<!-- Node3 -->
<g id="Node000003" class="node">
<title>Node3</title>
<g id="a_Node000003"><a xlink:href="classLOCKnet_1_1App_1_1ViewModels_1_1CredentialDetailViewModel.html" target="_top" xlink:title="ViewModel für das Hinzufügen / Bearbeiten eines Credentials.">
<polygon fill="white" stroke="#666666" points="542,-270 346,-270 346,-240 542,-240 542,-270"/>
<text text-anchor="start" x="354" y="-258" font-family="Helvetica,sans-Serif" font-size="10.00">LOCKnet.App.ViewModels.Credential</text>
<text text-anchor="middle" x="444" y="-247" font-family="Helvetica,sans-Serif" font-size="10.00">DetailViewModel</text>
</a>
</g>
</g>
<!-- Node1&#45;&gt;Node3 -->
<g id="edge2_Node000001_Node000003" class="edge">
<title>Node1&#45;&gt;Node3</title>
<g id="a_edge2_Node000001_Node000003"><a xlink:title=" ">
<path fill="none" stroke="#63b8ff" d="M247.77,-157.35C270.36,-179.28 307.7,-212.09 346,-231 352.92,-234.42 360.37,-237.37 367.95,-239.92"/>
<polygon fill="#63b8ff" stroke="#63b8ff" points="249.99,-154.63 240.42,-150.09 245.07,-159.61 249.99,-154.63"/>
</a>
</g>
</g>
<!-- Node4 -->
<g id="Node000004" class="node">
<title>Node4</title>
<g id="a_Node000004"><a xlink:href="classLOCKnet_1_1App_1_1ViewModels_1_1CredentialListViewModel.html" target="_top" xlink:title="ViewModel für die Credential&#45;Liste (Hauptansicht nach dem Login).">
<polygon fill="white" stroke="#666666" points="542,-222 346,-222 346,-192 542,-192 542,-222"/>
<text text-anchor="start" x="354" y="-210" font-family="Helvetica,sans-Serif" font-size="10.00">LOCKnet.App.ViewModels.Credential</text>
<text text-anchor="middle" x="444" y="-199" font-family="Helvetica,sans-Serif" font-size="10.00">ListViewModel</text>
</a>
</g>
</g>
<!-- Node1&#45;&gt;Node4 -->
<g id="edge3_Node000001_Node000004" class="edge">
<title>Node1&#45;&gt;Node4</title>
<g id="a_edge3_Node000001_Node000004"><a xlink:title=" ">
<path fill="none" stroke="#63b8ff" d="M269.25,-153.98C291.85,-163.46 320.12,-174.67 346,-183 355.91,-186.19 366.5,-189.2 376.91,-191.95"/>
<polygon fill="#63b8ff" stroke="#63b8ff" points="270.51,-150.71 259.94,-150.03 267.78,-157.16 270.51,-150.71"/>
</a>
</g>
</g>
<!-- Node5 -->
<g id="Node000005" class="node">
<title>Node5</title>
<g id="a_Node000005"><a xlink:href="classLOCKnet_1_1App_1_1ViewModels_1_1LockScreenViewModel.html" target="_top" xlink:title="Wird angezeigt, wenn die Sitzung durch Auto&#45;Lock oder manuell gesperrt wurde.">
<polygon fill="white" stroke="#666666" points="528,-174 360,-174 360,-144 528,-144 528,-174"/>
<text text-anchor="start" x="368" y="-162" font-family="Helvetica,sans-Serif" font-size="10.00">LOCKnet.App.ViewModels.Lock</text>
<text text-anchor="middle" x="444" y="-151" font-family="Helvetica,sans-Serif" font-size="10.00">ScreenViewModel</text>
</a>
</g>
</g>
<!-- Node1&#45;&gt;Node5 -->
<g id="edge4_Node000001_Node000005" class="edge">
<title>Node1&#45;&gt;Node5</title>
<g id="a_edge4_Node000001_Node000005"><a xlink:title=" ">
<path fill="none" stroke="#63b8ff" d="M320.24,-145.42C333.44,-146.88 346.93,-148.38 359.91,-149.81"/>
<polygon fill="#63b8ff" stroke="#63b8ff" points="320.53,-141.93 310.21,-144.31 319.76,-148.89 320.53,-141.93"/>
</a>
</g>
</g>
<!-- Node6 -->
<g id="Node000006" class="node">
<title>Node6</title>
<g id="a_Node000006"><a xlink:href="classLOCKnet_1_1App_1_1ViewModels_1_1LoginViewModel.html" target="_top" xlink:title="ViewModel für den Login&#45;Screen (Ersteinrichtung + Entsperren).">
<polygon fill="white" stroke="#666666" points="530,-126 358,-126 358,-96 530,-96 530,-126"/>
<text text-anchor="start" x="366" y="-114" font-family="Helvetica,sans-Serif" font-size="10.00">LOCKnet.App.ViewModels.Login</text>
<text text-anchor="middle" x="444" y="-103" font-family="Helvetica,sans-Serif" font-size="10.00">ViewModel</text>
</a>
</g>
</g>
<!-- Node1&#45;&gt;Node6 -->
<g id="edge5_Node000001_Node000006" class="edge">
<title>Node1&#45;&gt;Node6</title>
<g id="a_edge5_Node000001_Node000006"><a xlink:title=" ">
<path fill="none" stroke="#63b8ff" d="M320.17,-124.59C332.67,-123.2 345.43,-121.79 357.77,-120.43"/>
<polygon fill="#63b8ff" stroke="#63b8ff" points="319.76,-121.11 310.21,-125.69 320.53,-128.07 319.76,-121.11"/>
</a>
</g>
</g>
<!-- Node7 -->
<g id="Node000007" class="node">
<title>Node7</title>
<g id="a_Node000007"><a xlink:href="classLOCKnet_1_1App_1_1ViewModels_1_1MainWindowViewModel.html" target="_top" xlink:title="Shell&#45;ViewModel: verwaltet die aktive View über CurrentView.">
<polygon fill="white" stroke="#666666" points="529,-78 359,-78 359,-48 529,-48 529,-78"/>
<text text-anchor="start" x="367" y="-66" font-family="Helvetica,sans-Serif" font-size="10.00">LOCKnet.App.ViewModels.Main</text>
<text text-anchor="middle" x="444" y="-55" font-family="Helvetica,sans-Serif" font-size="10.00">WindowViewModel</text>
</a>
</g>
</g>
<!-- Node1&#45;&gt;Node7 -->
<g id="edge6_Node000001_Node000007" class="edge">
<title>Node1&#45;&gt;Node7</title>
<g id="a_edge6_Node000001_Node000007"><a xlink:title=" ">
<path fill="none" stroke="#63b8ff" d="M269.25,-116.02C291.85,-106.54 320.12,-95.33 346,-87 355.91,-83.81 366.5,-80.8 376.91,-78.05"/>
<polygon fill="#63b8ff" stroke="#63b8ff" points="267.78,-112.84 259.94,-119.97 270.51,-119.29 267.78,-112.84"/>
</a>
</g>
</g>
<!-- Node8 -->
<g id="Node000008" class="node">
<title>Node8</title>
<g id="a_Node000008"><a xlink:href="classLOCKnet_1_1App_1_1ViewModels_1_1TutorialViewModel.html" target="_top" xlink:title="ViewModel für die Tutorial&#45;/Hilfe&#45;Ansicht.">
<polygon fill="white" stroke="#666666" points="535,-30 353,-30 353,0 535,0 535,-30"/>
<text text-anchor="start" x="361" y="-18" font-family="Helvetica,sans-Serif" font-size="10.00">LOCKnet.App.ViewModels.Tutorial</text>
<text text-anchor="middle" x="444" y="-7" font-family="Helvetica,sans-Serif" font-size="10.00">ViewModel</text>
</a>
</g>
</g>
<!-- Node1&#45;&gt;Node8 -->
<g id="edge7_Node000001_Node000008" class="edge">
<title>Node1&#45;&gt;Node8</title>
<g id="a_edge7_Node000001_Node000008"><a xlink:title=" ">
<path fill="none" stroke="#63b8ff" d="M247.77,-112.65C270.36,-90.72 307.7,-57.91 346,-39 352.92,-35.58 360.37,-32.63 367.95,-30.08"/>
<polygon fill="#63b8ff" stroke="#63b8ff" points="245.07,-110.39 240.42,-119.91 249.99,-115.37 245.07,-110.39"/>
</a>
</g>
</g>
<!-- Node2 -->
<g id="Node000002" class="node">
<title>Node2</title>
<g id="a_Node000002"><a xlink:title=" ">
<polygon fill="white" stroke="#666666" points="104,-144.5 0,-144.5 0,-125.5 104,-125.5 104,-144.5"/>
<text text-anchor="middle" x="52" y="-132.5" font-family="Helvetica,sans-Serif" font-size="10.00">ObservableObject</text>
</a>
</g>
</g>
<!-- Node2&#45;&gt;Node1 -->
<g id="edge1_Node000001_Node000002" class="edge">
<title>Node2&#45;&gt;Node1</title>
<g id="a_edge1_Node000001_Node000002"><a xlink:title=" ">
<path fill="none" stroke="#63b8ff" d="M114.52,-135C122.73,-135 131.27,-135 139.8,-135"/>
<polygon fill="#63b8ff" stroke="#63b8ff" points="114.31,-131.5 104.31,-135 114.31,-138.5 114.31,-131.5"/>
</a>
</g>
</g>
</g>
</svg>

<g id="navigator" transform="translate(0 0)" fill="#404254">
  <rect fill="#f2f5e9" fill-opacity="0.5" stroke="#606060" stroke-width=".5" x="0" y="0" width="60" height="60"/>
  <use id="zoomplus" xlink:href="#zoomPlus" x="17" y="9" onmousedown="handleZoom(evt,'in')"/>
  <use id="zoomminus" xlink:href="#zoomMin" x="42" y="9" onmousedown="handleZoom(evt,'out')"/>
  <use id="reset" xlink:href="#resetDef" x="30" y="36" onmousedown="handleReset()"/>
   <use id="arrowup" xlink:href="#arrowUp" x="0" y="0" onmousedown="handlePan(0,-1)"/>
  <use id="arrowright" xlink:href="#arrowRight" x="0" y="0" onmousedown="handlePan(1,0)"/>
  <use id="arrowdown" xlink:href="#arrowDown" x="0" y="0" onmousedown="handlePan(0,1)"/>
  <use id="arrowleft" xlink:href="#arrowLeft" x="0" y="0" onmousedown="handlePan(-1,0)"/>
</g>
<svg viewBox="0 0 15 15" width="100%" height="30px" preserveAspectRatio="xMaxYMin meet">
 <g id="arrow_out" transform="scale(0.3 0.3)">
  <a xlink:href="classLOCKnet_1_1App_1_1ViewModels_1_1ViewModelBase__inherit__graph_org.svg" target="_base">
   <rect id="button" ry="5" rx="5" y="6" x="6" height="38" width="38"
        fill="#f2f5e9" fill-opacity="0.5" stroke="#606060" stroke-width="1.0"/>
   <path id="arrow"
     d="M 11.500037,31.436501 C 11.940474,20.09759 22.043105,11.32322 32.158766,21.979434 L 37.068811,17.246167 C 37.068811,17.246167 37.088388,32 37.088388,32 L 22.160133,31.978069 C 22.160133,31.978069 26.997745,27.140456 26.997745,27.140456 C 18.528582,18.264221 13.291696,25.230495 11.500037,31.436501 z"
     style="fill:#404040;"/>
  </a>
 </g>
</svg>

<style type='text/css'>
<![CDATA[
[data-mouse-over-selected='false'] { opacity: 0.7; }
[data-mouse-over-selected='true']  { opacity: 1.0; }
]]>
</style>
<script type="application/ecmascript"><![CDATA[
document.addEventListener('DOMContentLoaded', (event) => {
  highlightEdges();
  highlightAdjacentNodes();
});
]]></script>
</svg>
