<?xml version="1.0" encoding="UTF-8" standalone="no"?>
<!DOCTYPE svg PUBLIC "-//W3C//DTD SVG 1.1//EN"
 "http://www.w3.org/Graphics/SVG/1.1/DTD/svg11.dtd">
<!-- Generated by graphviz version 2.43.0 (0)
 -->
<!-- Title: Graphical Class Hierarchy Pages: 1 -->
<svg width="329pt" height="134pt"
 viewBox="0.00 0.00 329.00 134.00" xmlns="http://www.w3.org/2000/svg" xmlns:xlink="http://www.w3.org/1999/xlink">
<g id="graph0" class="graph" transform="scale(1 1) rotate(0) translate(4 130)">
<title>Graphical Class Hierarchy</title>
<!-- Node0 -->
<g id="Node000000" class="node">
<title>Node0</title>
<g id="a_Node000000"><a xlink:title=" ">
<polygon fill="#e0e0e0" stroke="#999999" points="95,-72.5 0,-72.5 0,-53.5 95,-53.5 95,-72.5"/>
<text text-anchor="middle" x="47.5" y="-60.5" font-family="Helvetica,sans-Serif" font-size="10.00">IValueConverter</text>
</a>
</g>
</g>
<!-- Node1 -->
<g id="Node000001" class="node">
<title>Node1</title>
<g id="a_Node000001"><a xlink:href="classLOCKnet_1_1App_1_1Converters_1_1CredentialTypeIsApiKeyConverter.html" target="_top" xlink:title="Konvertiert einen CredentialType&#45;Wert in true, wenn er CredentialType.ApiKey ist.">
<polygon fill="white" stroke="#666666" points="321,-126 131,-126 131,-96 321,-96 321,-126"/>
<text text-anchor="start" x="139" y="-114" font-family="Helvetica,sans-Serif" font-size="10.00">LOCKnet.App.Converters.Credential</text>
<text text-anchor="middle" x="226" y="-103" font-family="Helvetica,sans-Serif" font-size="10.00">TypeIsApiKeyConverter</text>
</a>
</g>
</g>
<!-- Node0&#45;&gt;Node1 -->
<g id="edge4_Node000000_Node000001" class="edge">
<title>Node0&#45;&gt;Node1</title>
<g id="a_edge4_Node000000_Node000001"><a xlink:title=" ">
<path fill="none" stroke="#63b8ff" d="M90.21,-75.42C103.25,-79.23 117.7,-83.37 131,-87 141.97,-89.99 153.69,-93.08 165,-96"/>
<polygon fill="#63b8ff" stroke="#63b8ff" points="91.14,-72.05 80.56,-72.59 89.17,-78.77 91.14,-72.05"/>
</a>
</g>
</g>
<!-- Node2 -->
<g id="Node000002" class="node">
<title>Node2</title>
<g id="a_Node000002"><a xlink:href="classLOCKnet_1_1App_1_1Converters_1_1IconSelectedBrushConverter.html" target="_top" xlink:title=" ">
<polygon fill="white" stroke="#666666" points="306,-78 146,-78 146,-48 306,-48 306,-78"/>
<text text-anchor="start" x="154" y="-66" font-family="Helvetica,sans-Serif" font-size="10.00">LOCKnet.App.Converters.Icon</text>
<text text-anchor="middle" x="226" y="-55" font-family="Helvetica,sans-Serif" font-size="10.00">SelectedBrushConverter</text>
</a>
</g>
</g>
<!-- Node0&#45;&gt;Node2 -->
<g id="edge5_Node000000_Node000002" class="edge">
<title>Node0&#45;&gt;Node2</title>
<g id="a_edge5_Node000000_Node000002"><a xlink:title=" ">
<path fill="none" stroke="#63b8ff" d="M105.43,-63C118.32,-63 132.23,-63 145.86,-63"/>
<polygon fill="#63b8ff" stroke="#63b8ff" points="105.34,-59.5 95.34,-63 105.34,-66.5 105.34,-59.5"/>
</a>
</g>
</g>
<!-- Node3 -->
<g id="Node000003" class="node">
<title>Node3</title>
<g id="a_Node000003"><a xlink:href="classLOCKnet_1_1App_1_1Converters_1_1StringToMaterialIconKindConverter.html" target="_top" xlink:title=" ">
<polygon fill="white" stroke="#666666" points="310,-30 142,-30 142,0 310,0 310,-30"/>
<text text-anchor="start" x="150" y="-18" font-family="Helvetica,sans-Serif" font-size="10.00">LOCKnet.App.Converters.String</text>
<text text-anchor="middle" x="226" y="-7" font-family="Helvetica,sans-Serif" font-size="10.00">ToMaterialIconKindConverter</text>
</a>
</g>
</g>
<!-- Node0&#45;&gt;Node3 -->
<g id="edge6_Node000000_Node000003" class="edge">
<title>Node0&#45;&gt;Node3</title>
<g id="a_edge6_Node000000_Node000003"><a xlink:title=" ">
<path fill="none" stroke="#63b8ff" d="M90.21,-50.58C103.25,-46.77 117.7,-42.63 131,-39 141.97,-36.01 153.69,-32.92 165,-30"/>
<polygon fill="#63b8ff" stroke="#63b8ff" points="89.17,-47.23 80.56,-53.41 91.14,-53.95 89.17,-47.23"/>
</a>
</g>
</g>
</g>
</svg>
